<svg xmlns="http://www.w3.org/2000/svg" xmlns:xlink="http://www.w3.org/1999/xlink" width="1920" zoomAndPan="magnify" viewBox="0 0 1440 809.999993" height="1080" preserveAspectRatio="xMidYMid meet" version="1.0"><defs><g/></defs><g fill="#d32f23" fill-opacity="0.4196"><g transform="translate(347.606163, 386.618146)"><g><path d="M 226 -295.5 C 225.664062 -293.832031 224.914062 -292.414062 223.75 -291.25 C 222.582031 -290.082031 221.164062 -289.5 219.5 -289.5 L 118 -289.5 C 116.332031 -289.5 115.5 -288.664062 115.5 -287 L 105.5 -208 C 105.5 -206.332031 106.164062 -205.5 107.5 -205.5 L 166 -205.5 C 167.664062 -205.5 169 -204.914062 170 -203.75 C 171 -202.582031 171.332031 -201.164062 171 -199.5 L 165 -151 C 164.664062 -149.332031 163.914062 -147.914062 162.75 -146.75 C 161.582031 -145.582031 160.164062 -145 158.5 -145 L 100.5 -145 C 98.5 -145 97.5 -144.164062 97.5 -142.5 L 88 -63 C 87.332031 -61.332031 88 -60.5 90 -60.5 L 191 -60.5 C 192.664062 -60.5 194.082031 -59.914062 195.25 -58.75 C 196.414062 -57.582031 196.832031 -56.164062 196.5 -54.5 L 190.5 -6 C 190.164062 -4.332031 189.414062 -2.914062 188.25 -1.75 C 187.082031 -0.582031 185.664062 0 184 0 L 17.5 0 C 15.832031 0 14.5 -0.582031 13.5 -1.75 C 12.5 -2.914062 12.164062 -4.332031 12.5 -6 L 54 -344 C 54.332031 -345.664062 55.082031 -347.082031 56.25 -348.25 C 57.414062 -349.414062 58.832031 -350 60.5 -350 L 227 -350 C 228.664062 -350 230 -349.414062 231 -348.25 C 232 -347.082031 232.332031 -345.664062 232 -344 Z M 226 -295.5 "/></g></g></g><g fill="#d32f23" fill-opacity="0.4196"><g transform="translate(560.103644, 386.618146)"><g><path d="M 158 -350.5 C 182.332031 -350.5 201.582031 -342.5 215.75 -326.5 C 229.914062 -310.5 237 -289.332031 237 -263 C 237 -254.664062 236.664062 -248.332031 236 -244 C 232.332031 -213 221.25 -188.164062 202.75 -169.5 C 184.25 -150.832031 161.832031 -141.5 135.5 -141.5 L 99.5 -141.5 C 98.164062 -141.5 97.164062 -140.664062 96.5 -139 L 80.5 -6 C 80.164062 -4.332031 79.332031 -2.914062 78 -1.75 C 76.664062 -0.582031 75.164062 0 73.5 0 L 17 0 C 15.332031 0 14 -0.582031 13 -1.75 C 12 -2.914062 11.664062 -4.332031 12 -6 L 53.5 -344.5 C 53.832031 -346.164062 54.582031 -347.582031 55.75 -348.75 C 56.914062 -349.914062 58.332031 -350.5 60 -350.5 Z M 127.5 -196.5 C 139.164062 -196.5 148.832031 -201.5 156.5 -211.5 C 164.164062 -221.5 168 -235.164062 168 -252.5 C 168 -264.164062 165.414062 -273.25 160.25 -279.75 C 155.082031 -286.25 148 -289.5 139 -289.5 L 117.5 -289.5 C 115.832031 -289.5 115 -288.664062 115 -287 L 104 -199 C 104 -197.332031 104.664062 -196.5 106 -196.5 Z M 127.5 -196.5 "/></g></g></g><g fill="#d32f23" fill-opacity="0.4196"><g transform="translate(785.601018, 386.618146)"><g><path d="M 17.5 0 C 15.832031 0 14.5 -0.582031 13.5 -1.75 C 12.5 -2.914062 12.164062 -4.332031 12.5 -6 L 54 -344 C 54.332031 -345.664062 55.082031 -347.082031 56.25 -348.25 C 57.414062 -349.414062 58.832031 -350 60.5 -350 L 117 -350 C 120.664062 -350 122.5 -348 122.5 -344 L 81 -6 C 80.664062 -4.332031 79.832031 -2.914062 78.5 -1.75 C 77.164062 -0.582031 75.664062 0 74 0 Z M 17.5 0 "/></g></g></g><g fill="#d32f23" fill-opacity="0.4196"><g transform="translate(897.0997, 386.618146)"><g><path d="M 103 4 C 76.664062 4 55.832031 -3.414062 40.5 -18.25 C 25.164062 -33.082031 17.5 -53.164062 17.5 -78.5 C 17.5 -81.832031 17.832031 -87.164062 18.5 -94.5 L 38.5 -256.5 C 41.832031 -286.164062 53.414062 -309.832031 73.25 -327.5 C 93.082031 -345.164062 117.664062 -354 147 -354 C 173.664062 -354 194.664062 -346.582031 210 -331.75 C 225.332031 -316.914062 233 -296.832031 233 -271.5 C 233 -268.164062 232.664062 -263.164062 232 -256.5 L 231 -251 C 230.664062 -249.332031 229.914062 -247.914062 228.75 -246.75 C 227.582031 -245.582031 226.164062 -245 224.5 -245 L 167.5 -242.5 C 163.832031 -242.5 162.164062 -244.332031 162.5 -248 L 164 -261 C 164.332031 -262.332031 164.5 -264.332031 164.5 -267 C 164.5 -275 162.25 -281.414062 157.75 -286.25 C 153.25 -291.082031 147.164062 -293.5 139.5 -293.5 C 131.164062 -293.5 124 -290.5 118 -284.5 C 112 -278.5 108.332031 -270.664062 107 -261 L 86 -88.5 C 85.664062 -87.164062 85.5 -85.332031 85.5 -83 C 85.5 -75 87.75 -68.582031 92.25 -63.75 C 96.75 -58.914062 102.664062 -56.5 110 -56.5 C 118.664062 -56.5 126 -59.414062 132 -65.25 C 138 -71.082031 141.664062 -78.832031 143 -88.5 L 144.5 -102 C 144.832031 -103.664062 145.582031 -105.082031 146.75 -106.25 C 147.914062 -107.414062 149.332031 -108 151 -108 L 207.5 -105.5 C 209.164062 -105.5 210.5 -104.914062 211.5 -103.75 C 212.5 -102.582031 212.832031 -101.164062 212.5 -99.5 L 212 -94.5 C 208.332031 -64.5 196.5 -40.582031 176.5 -22.75 C 156.5 -4.914062 132 4 103 4 Z M 103 4 "/></g></g></g><g fill="#75c7fb" fill-opacity="1"><g transform="translate(332.743259, 373.235527)"><g><path d="M 226 -295.5 C 225.664062 -293.832031 224.914062 -292.414062 223.75 -291.25 C 222.582031 -290.082031 221.164062 -289.5 219.5 -289.5 L 118 -289.5 C 116.332031 -289.5 115.5 -288.664062 115.5 -287 L 105.5 -208 C 105.5 -206.332031 106.164062 -205.5 107.5 -205.5 L 166 -205.5 C 167.664062 -205.5 169 -204.914062 170 -203.75 C 171 -202.582031 171.332031 -201.164062 171 -199.5 L 165 -151 C 164.664062 -149.332031 163.914062 -147.914062 162.75 -146.75 C 161.582031 -145.582031 160.164062 -145 158.5 -145 L 100.5 -145 C 98.5 -145 97.5 -144.164062 97.5 -142.5 L 88 -63 C 87.332031 -61.332031 88 -60.5 90 -60.5 L 191 -60.5 C 192.664062 -60.5 194.082031 -59.914062 195.25 -58.75 C 196.414062 -57.582031 196.832031 -56.164062 196.5 -54.5 L 190.5 -6 C 190.164062 -4.332031 189.414062 -2.914062 188.25 -1.75 C 187.082031 -0.582031 185.664062 0 184 0 L 17.5 0 C 15.832031 0 14.5 -0.582031 13.5 -1.75 C 12.5 -2.914062 12.164062 -4.332031 12.5 -6 L 54 -344 C 54.332031 -345.664062 55.082031 -347.082031 56.25 -348.25 C 57.414062 -349.414062 58.832031 -350 60.5 -350 L 227 -350 C 228.664062 -350 230 -349.414062 231 -348.25 C 232 -347.082031 232.332031 -345.664062 232 -344 Z M 226 -295.5 "/></g></g></g><g fill="#75c7fb" fill-opacity="1"><g transform="translate(545.240741, 373.235527)"><g><path d="M 158 -350.5 C 182.332031 -350.5 201.582031 -342.5 215.75 -326.5 C 229.914062 -310.5 237 -289.332031 237 -263 C 237 -254.664062 236.664062 -248.332031 236 -244 C 232.332031 -213 221.25 -188.164062 202.75 -169.5 C 184.25 -150.832031 161.832031 -141.5 135.5 -141.5 L 99.5 -141.5 C 98.164062 -141.5 97.164062 -140.664062 96.5 -139 L 80.5 -6 C 80.164062 -4.332031 79.332031 -2.914062 78 -1.75 C 76.664062 -0.582031 75.164062 0 73.5 0 L 17 0 C 15.332031 0 14 -0.582031 13 -1.75 C 12 -2.914062 11.664062 -4.332031 12 -6 L 53.5 -344.5 C 53.832031 -346.164062 54.582031 -347.582031 55.75 -348.75 C 56.914062 -349.914062 58.332031 -350.5 60 -350.5 Z M 127.5 -196.5 C 139.164062 -196.5 148.832031 -201.5 156.5 -211.5 C 164.164062 -221.5 168 -235.164062 168 -252.5 C 168 -264.164062 165.414062 -273.25 160.25 -279.75 C 155.082031 -286.25 148 -289.5 139 -289.5 L 117.5 -289.5 C 115.832031 -289.5 115 -288.664062 115 -287 L 104 -199 C 104 -197.332031 104.664062 -196.5 106 -196.5 Z M 127.5 -196.5 "/></g></g></g><g fill="#75c7fb" fill-opacity="1"><g transform="translate(770.738115, 373.235527)"><g><path d="M 17.5 0 C 15.832031 0 14.5 -0.582031 13.5 -1.75 C 12.5 -2.914062 12.164062 -4.332031 12.5 -6 L 54 -344 C 54.332031 -345.664062 55.082031 -347.082031 56.25 -348.25 C 57.414062 -349.414062 58.832031 -350 60.5 -350 L 117 -350 C 120.664062 -350 122.5 -348 122.5 -344 L 81 -6 C 80.664062 -4.332031 79.832031 -2.914062 78.5 -1.75 C 77.164062 -0.582031 75.664062 0 74 0 Z M 17.5 0 "/></g></g></g><g fill="#75c7fb" fill-opacity="1"><g transform="translate(882.236797, 373.235527)"><g><path d="M 103 4 C 76.664062 4 55.832031 -3.414062 40.5 -18.25 C 25.164062 -33.082031 17.5 -53.164062 17.5 -78.5 C 17.5 -81.832031 17.832031 -87.164062 18.5 -94.5 L 38.5 -256.5 C 41.832031 -286.164062 53.414062 -309.832031 73.25 -327.5 C 93.082031 -345.164062 117.664062 -354 147 -354 C 173.664062 -354 194.664062 -346.582031 210 -331.75 C 225.332031 -316.914062 233 -296.832031 233 -271.5 C 233 -268.164062 232.664062 -263.164062 232 -256.5 L 231 -251 C 230.664062 -249.332031 229.914062 -247.914062 228.75 -246.75 C 227.582031 -245.582031 226.164062 -245 224.5 -245 L 167.5 -242.5 C 163.832031 -242.5 162.164062 -244.332031 162.5 -248 L 164 -261 C 164.332031 -262.332031 164.5 -264.332031 164.5 -267 C 164.5 -275 162.25 -281.414062 157.75 -286.25 C 153.25 -291.082031 147.164062 -293.5 139.5 -293.5 C 131.164062 -293.5 124 -290.5 118 -284.5 C 112 -278.5 108.332031 -270.664062 107 -261 L 86 -88.5 C 85.664062 -87.164062 85.5 -85.332031 85.5 -83 C 85.5 -75 87.75 -68.582031 92.25 -63.75 C 96.75 -58.914062 102.664062 -56.5 110 -56.5 C 118.664062 -56.5 126 -59.414062 132 -65.25 C 138 -71.082031 141.664062 -78.832031 143 -88.5 L 144.5 -102 C 144.832031 -103.664062 145.582031 -105.082031 146.75 -106.25 C 147.914062 -107.414062 149.332031 -108 151 -108 L 207.5 -105.5 C 209.164062 -105.5 210.5 -104.914062 211.5 -103.75 C 212.5 -102.582031 212.832031 -101.164062 212.5 -99.5 L 212 -94.5 C 208.332031 -64.5 196.5 -40.582031 176.5 -22.75 C 156.5 -4.914062 132 4 103 4 Z M 103 4 "/></g></g></g><g fill="#d32f23" fill-opacity="0.4196"><g transform="translate(155.113985, 786.368126)"><g><path d="M 225.5 -295.5 C 225.164062 -293.832031 224.414062 -292.414062 223.25 -291.25 C 222.082031 -290.082031 220.664062 -289.5 219 -289.5 L 118 -289.5 C 116.332031 -289.5 115.5 -288.664062 115.5 -287 L 105.5 -208 C 105.5 -206.332031 106.164062 -205.5 107.5 -205.5 L 165.5 -205.5 C 167.164062 -205.5 168.5 -204.914062 169.5 -203.75 C 170.5 -202.582031 170.832031 -201.164062 170.5 -199.5 L 164.5 -151 C 164.164062 -149.332031 163.414062 -147.914062 162.25 -146.75 C 161.082031 -145.582031 159.664062 -145 158 -145 L 100.5 -145 C 98.5 -145 97.5 -144.164062 97.5 -142.5 L 81 -6 C 80.664062 -4.332031 79.832031 -2.914062 78.5 -1.75 C 77.164062 -0.582031 75.664062 0 74 0 L 17.5 0 C 15.832031 0 14.5 -0.582031 13.5 -1.75 C 12.5 -2.914062 12.164062 -4.332031 12.5 -6 L 54 -344 C 54.332031 -345.664062 55.082031 -347.082031 56.25 -348.25 C 57.414062 -349.414062 58.832031 -350 60.5 -350 L 226.5 -350 C 228.164062 -350 229.5 -349.414062 230.5 -348.25 C 231.5 -347.082031 231.832031 -345.664062 231.5 -344 Z M 225.5 -295.5 "/></g></g></g><g fill="#d32f23" fill-opacity="0.4196"><g transform="translate(359.111575, 786.368126)"><g><path d="M 104.5 4 C 77.5 4 56.25 -3.414062 40.75 -18.25 C 25.25 -33.082031 17.5 -53.332031 17.5 -79 C 17.5 -82.332031 17.832031 -87.664062 18.5 -95 L 38 -255 C 41.664062 -285 53.5 -309 73.5 -327 C 93.5 -345 118.332031 -354 148 -354 C 175 -354 196.332031 -346.582031 212 -331.75 C 227.664062 -316.914062 235.5 -296.664062 235.5 -271 C 235.5 -267.664062 235.164062 -262.332031 234.5 -255 L 215 -95 C 211.332031 -65 199.414062 -41 179.25 -23 C 159.082031 -5 134.164062 4 104.5 4 Z M 111.5 -56.5 C 120.832031 -56.5 128.582031 -59.75 134.75 -66.25 C 140.914062 -72.75 144.664062 -81.332031 146 -92 L 166.5 -258 C 166.832031 -259.332031 167 -261.332031 167 -264 C 167 -273 164.664062 -280.164062 160 -285.5 C 155.332031 -290.832031 149 -293.5 141 -293.5 C 132 -293.5 124.414062 -290.25 118.25 -283.75 C 112.082031 -277.25 108.332031 -268.664062 107 -258 L 86.5 -92 C 86.164062 -90.664062 86 -88.664062 86 -86 C 86 -77 88.332031 -69.832031 93 -64.5 C 97.664062 -59.164062 103.832031 -56.5 111.5 -56.5 Z M 111.5 -56.5 "/></g></g></g><g fill="#d32f23" fill-opacity="0.4196"><g transform="translate(588.108868, 786.368126)"><g><path d="M 145.5 0 C 142.164062 0 140.164062 -1.664062 139.5 -5 L 119 -143 C 118.332031 -144.332031 117.5 -145 116.5 -145 L 100.5 -145 C 98.5 -145 97.5 -144.164062 97.5 -142.5 L 81 -6 C 80.664062 -4.332031 79.832031 -2.914062 78.5 -1.75 C 77.164062 -0.582031 75.664062 0 74 0 L 17.5 0 C 15.832031 0 14.5 -0.582031 13.5 -1.75 C 12.5 -2.914062 12.164062 -4.332031 12.5 -6 L 54 -344 C 54.332031 -345.664062 55.082031 -347.082031 56.25 -348.25 C 57.414062 -349.414062 58.832031 -350 60.5 -350 L 158.5 -350 C 182.5 -350 201.664062 -342.082031 216 -326.25 C 230.332031 -310.414062 237.5 -289.332031 237.5 -263 C 237.5 -255 237.164062 -248.832031 236.5 -244.5 C 234.164062 -225.164062 228.414062 -207.914062 219.25 -192.75 C 210.082031 -177.582031 198.5 -165.832031 184.5 -157.5 C 183.832031 -157.164062 183.332031 -156.75 183 -156.25 C 182.664062 -155.75 182.664062 -155.164062 183 -154.5 L 209.5 -7 L 209.5 -6 C 209.5 -4.332031 208.914062 -2.914062 207.75 -1.75 C 206.582031 -0.582031 205.164062 0 203.5 0 Z M 118 -289.5 C 116.332031 -289.5 115.5 -288.664062 115.5 -287 L 105 -201.5 C 104.332031 -199.832031 105 -199 107 -199 L 128.5 -199 C 139.832031 -199 149.332031 -204 157 -214 C 164.664062 -224 168.5 -237.164062 168.5 -253.5 C 168.5 -264.5 165.914062 -273.25 160.75 -279.75 C 155.582031 -286.25 148.664062 -289.5 140 -289.5 Z M 118 -289.5 "/></g></g></g><g fill="#d32f23" fill-opacity="0.4196"><g transform="translate(816.606219, 786.368126)"><g><path d="M 106 4 C 80 4 59.414062 -3.75 44.25 -19.25 C 29.082031 -34.75 21.5 -55.5 21.5 -81.5 C 21.5 -89.5 21.832031 -95.5 22.5 -99.5 L 52.5 -344 C 52.832031 -345.664062 53.582031 -347.082031 54.75 -348.25 C 55.914062 -349.414062 57.332031 -350 59 -350 L 115.5 -350 C 119.164062 -350 121 -348 121 -344 L 90 -92.5 C 89.664062 -90.832031 89.5 -88.5 89.5 -85.5 C 89.5 -76.832031 91.664062 -69.832031 96 -64.5 C 100.332031 -59.164062 106.164062 -56.5 113.5 -56.5 C 121.832031 -56.5 128.914062 -59.832031 134.75 -66.5 C 140.582031 -73.164062 144.164062 -81.832031 145.5 -92.5 L 176.5 -344 C 176.832031 -345.664062 177.582031 -347.082031 178.75 -348.25 C 179.914062 -349.414062 181.332031 -350 183 -350 L 240 -350 C 241.664062 -350 243 -349.414062 244 -348.25 C 245 -347.082031 245.332031 -345.664062 245 -344 L 215 -99.5 C 211.332031 -68.164062 199.5 -43.082031 179.5 -24.25 C 159.5 -5.414062 135 4 106 4 Z M 106 4 "/></g></g></g><g fill="#d32f23" fill-opacity="0.4196"><g transform="translate(1049.103507, 786.368126)"><g><path d="M 209.5 -346 C 210.832031 -348.664062 213.332031 -350 217 -350 L 273.5 -350 C 275.164062 -350 276.5 -349.414062 277.5 -348.25 C 278.5 -347.082031 278.832031 -345.664062 278.5 -344 L 237 -6 C 236.664062 -4.332031 235.914062 -2.914062 234.75 -1.75 C 233.582031 -0.582031 232.164062 0 230.5 0 L 173.5 0 C 171.832031 0 170.5 -0.582031 169.5 -1.75 C 168.5 -2.914062 168.164062 -4.332031 168.5 -6 L 196 -230.5 C 196.332031 -231.832031 196.164062 -232.5 195.5 -232.5 C 194.832031 -232.5 194.164062 -232 193.5 -231 L 147 -162 C 145 -159.332031 143.5 -158 142.5 -158 C 141.832031 -158 140.664062 -159.332031 139 -162 L 110 -231 C 109.332031 -232 108.664062 -232.5 108 -232.5 C 107.332031 -232.5 107 -231.832031 107 -230.5 L 79.5 -6 C 79.164062 -4.332031 78.414062 -2.914062 77.25 -1.75 C 76.082031 -0.582031 74.664062 0 73 0 L 16 0 C 14.332031 0 13 -0.582031 12 -1.75 C 11 -2.914062 10.664062 -4.332031 11 -6 L 52.5 -344 C 52.832031 -345.664062 53.582031 -347.082031 54.75 -348.25 C 55.914062 -349.414062 57.332031 -350 59 -350 L 115 -350 C 116.332031 -350 117.664062 -349.664062 119 -349 C 120.332031 -348.332031 121.164062 -347.332031 121.5 -346 L 155 -266.5 C 155.664062 -265.164062 156.664062 -265.164062 158 -266.5 Z M 209.5 -346 "/></g></g></g><g fill="#ff3847" fill-opacity="1"><g transform="translate(140.251081, 772.985507)"><g><path d="M 225.5 -295.5 C 225.164062 -293.832031 224.414062 -292.414062 223.25 -291.25 C 222.082031 -290.082031 220.664062 -289.5 219 -289.5 L 118 -289.5 C 116.332031 -289.5 115.5 -288.664062 115.5 -287 L 105.5 -208 C 105.5 -206.332031 106.164062 -205.5 107.5 -205.5 L 165.5 -205.5 C 167.164062 -205.5 168.5 -204.914062 169.5 -203.75 C 170.5 -202.582031 170.832031 -201.164062 170.5 -199.5 L 164.5 -151 C 164.164062 -149.332031 163.414062 -147.914062 162.25 -146.75 C 161.082031 -145.582031 159.664062 -145 158 -145 L 100.5 -145 C 98.5 -145 97.5 -144.164062 97.5 -142.5 L 81 -6 C 80.664062 -4.332031 79.832031 -2.914062 78.5 -1.75 C 77.164062 -0.582031 75.664062 0 74 0 L 17.5 0 C 15.832031 0 14.5 -0.582031 13.5 -1.75 C 12.5 -2.914062 12.164062 -4.332031 12.5 -6 L 54 -344 C 54.332031 -345.664062 55.082031 -347.082031 56.25 -348.25 C 57.414062 -349.414062 58.832031 -350 60.5 -350 L 226.5 -350 C 228.164062 -350 229.5 -349.414062 230.5 -348.25 C 231.5 -347.082031 231.832031 -345.664062 231.5 -344 Z M 225.5 -295.5 "/></g></g></g><g fill="#ff3847" fill-opacity="1"><g transform="translate(344.248671, 772.985507)"><g><path d="M 104.5 4 C 77.5 4 56.25 -3.414062 40.75 -18.25 C 25.25 -33.082031 17.5 -53.332031 17.5 -79 C 17.5 -82.332031 17.832031 -87.664062 18.5 -95 L 38 -255 C 41.664062 -285 53.5 -309 73.5 -327 C 93.5 -345 118.332031 -354 148 -354 C 175 -354 196.332031 -346.582031 212 -331.75 C 227.664062 -316.914062 235.5 -296.664062 235.5 -271 C 235.5 -267.664062 235.164062 -262.332031 234.5 -255 L 215 -95 C 211.332031 -65 199.414062 -41 179.25 -23 C 159.082031 -5 134.164062 4 104.5 4 Z M 111.5 -56.5 C 120.832031 -56.5 128.582031 -59.75 134.75 -66.25 C 140.914062 -72.75 144.664062 -81.332031 146 -92 L 166.5 -258 C 166.832031 -259.332031 167 -261.332031 167 -264 C 167 -273 164.664062 -280.164062 160 -285.5 C 155.332031 -290.832031 149 -293.5 141 -293.5 C 132 -293.5 124.414062 -290.25 118.25 -283.75 C 112.082031 -277.25 108.332031 -268.664062 107 -258 L 86.5 -92 C 86.164062 -90.664062 86 -88.664062 86 -86 C 86 -77 88.332031 -69.832031 93 -64.5 C 97.664062 -59.164062 103.832031 -56.5 111.5 -56.5 Z M 111.5 -56.5 "/></g></g></g><g fill="#ff3847" fill-opacity="1"><g transform="translate(573.245964, 772.985507)"><g><path d="M 145.5 0 C 142.164062 0 140.164062 -1.664062 139.5 -5 L 119 -143 C 118.332031 -144.332031 117.5 -145 116.5 -145 L 100.5 -145 C 98.5 -145 97.5 -144.164062 97.5 -142.5 L 81 -6 C 80.664062 -4.332031 79.832031 -2.914062 78.5 -1.75 C 77.164062 -0.582031 75.664062 0 74 0 L 17.5 0 C 15.832031 0 14.5 -0.582031 13.5 -1.75 C 12.5 -2.914062 12.164062 -4.332031 12.5 -6 L 54 -344 C 54.332031 -345.664062 55.082031 -347.082031 56.25 -348.25 C 57.414062 -349.414062 58.832031 -350 60.5 -350 L 158.5 -350 C 182.5 -350 201.664062 -342.082031 216 -326.25 C 230.332031 -310.414062 237.5 -289.332031 237.5 -263 C 237.5 -255 237.164062 -248.832031 236.5 -244.5 C 234.164062 -225.164062 228.414062 -207.914062 219.25 -192.75 C 210.082031 -177.582031 198.5 -165.832031 184.5 -157.5 C 183.832031 -157.164062 183.332031 -156.75 183 -156.25 C 182.664062 -155.75 182.664062 -155.164062 183 -154.5 L 209.5 -7 L 209.5 -6 C 209.5 -4.332031 208.914062 -2.914062 207.75 -1.75 C 206.582031 -0.582031 205.164062 0 203.5 0 Z M 118 -289.5 C 116.332031 -289.5 115.5 -288.664062 115.5 -287 L 105 -201.5 C 104.332031 -199.832031 105 -199 107 -199 L 128.5 -199 C 139.832031 -199 149.332031 -204 157 -214 C 164.664062 -224 168.5 -237.164062 168.5 -253.5 C 168.5 -264.5 165.914062 -273.25 160.75 -279.75 C 155.582031 -286.25 148.664062 -289.5 140 -289.5 Z M 118 -289.5 "/></g></g></g><g fill="#ff3847" fill-opacity="1"><g transform="translate(801.743315, 772.985507)"><g><path d="M 106 4 C 80 4 59.414062 -3.75 44.25 -19.25 C 29.082031 -34.75 21.5 -55.5 21.5 -81.5 C 21.5 -89.5 21.832031 -95.5 22.5 -99.5 L 52.5 -344 C 52.832031 -345.664062 53.582031 -347.082031 54.75 -348.25 C 55.914062 -349.414062 57.332031 -350 59 -350 L 115.5 -350 C 119.164062 -350 121 -348 121 -344 L 90 -92.5 C 89.664062 -90.832031 89.5 -88.5 89.5 -85.5 C 89.5 -76.832031 91.664062 -69.832031 96 -64.5 C 100.332031 -59.164062 106.164062 -56.5 113.5 -56.5 C 121.832031 -56.5 128.914062 -59.832031 134.75 -66.5 C 140.582031 -73.164062 144.164062 -81.832031 145.5 -92.5 L 176.5 -344 C 176.832031 -345.664062 177.582031 -347.082031 178.75 -348.25 C 179.914062 -349.414062 181.332031 -350 183 -350 L 240 -350 C 241.664062 -350 243 -349.414062 244 -348.25 C 245 -347.082031 245.332031 -345.664062 245 -344 L 215 -99.5 C 211.332031 -68.164062 199.5 -43.082031 179.5 -24.25 C 159.5 -5.414062 135 4 106 4 Z M 106 4 "/></g></g></g><g fill="#ff3847" fill-opacity="1"><g transform="translate(1034.240604, 772.985507)"><g><path d="M 209.5 -346 C 210.832031 -348.664062 213.332031 -350 217 -350 L 273.5 -350 C 275.164062 -350 276.5 -349.414062 277.5 -348.25 C 278.5 -347.082031 278.832031 -345.664062 278.5 -344 L 237 -6 C 236.664062 -4.332031 235.914062 -2.914062 234.75 -1.75 C 233.582031 -0.582031 232.164062 0 230.5 0 L 173.5 0 C 171.832031 0 170.5 -0.582031 169.5 -1.75 C 168.5 -2.914062 168.164062 -4.332031 168.5 -6 L 196 -230.5 C 196.332031 -231.832031 196.164062 -232.5 195.5 -232.5 C 194.832031 -232.5 194.164062 -232 193.5 -231 L 147 -162 C 145 -159.332031 143.5 -158 142.5 -158 C 141.832031 -158 140.664062 -159.332031 139 -162 L 110 -231 C 109.332031 -232 108.664062 -232.5 108 -232.5 C 107.332031 -232.5 107 -231.832031 107 -230.5 L 79.5 -6 C 79.164062 -4.332031 78.414062 -2.914062 77.25 -1.75 C 76.082031 -0.582031 74.664062 0 73 0 L 16 0 C 14.332031 0 13 -0.582031 12 -1.75 C 11 -2.914062 10.664062 -4.332031 11 -6 L 52.5 -344 C 52.832031 -345.664062 53.582031 -347.082031 54.75 -348.25 C 55.914062 -349.414062 57.332031 -350 59 -350 L 115 -350 C 116.332031 -350 117.664062 -349.664062 119 -349 C 120.332031 -348.332031 121.164062 -347.332031 121.5 -346 L 155 -266.5 C 155.664062 -265.164062 156.664062 -265.164062 158 -266.5 Z M 209.5 -346 "/></g></g></g></svg>